<svg width="64" height="56" viewBox="0 0 64 56" fill="none" xmlns="http://www.w3.org/2000/svg">
<path d="M31.9425 55.3725C49.2404 55.3725 63.385 43.1517 63.385 27.9363C63.385 12.7208 49.2404 0.5 31.9425 0.5C14.6446 0.5 0.5 12.7208 0.5 27.9363C0.5 43.1517 14.6446 55.3725 31.9425 55.3725Z" fill="white" stroke="#FDFDFE"/>
<path d="M32.2214 1.19222C49.1915 1.2982 62.9003 13.408 62.7784 28.1922C62.6566 42.9733 48.7497 54.9138 31.7795 54.8078C14.8057 54.7018 1.10062 42.5889 1.22243 27.8078C1.34427 13.0235 15.2476 1.08621 32.2214 1.19222ZM32.1043 20.2606C32.188 20.2675 32.4609 20.3136 33.0487 20.6061C34.9973 21.5703 36.8797 22.6071 38.8063 23.5902C39.5391 23.966 39.8162 24.393 39.792 25.1164C39.715 26.9438 39.7364 28.3181 39.75 29.3209C39.7712 30.7364 39.7829 31.5172 39.5136 31.9249C39.2443 32.3294 38.4578 32.7116 37.0384 33.4073C36.08 33.8741 34.7631 34.5164 33.0869 35.4263C32.2928 35.8561 31.7244 35.8525 30.901 35.4126C26.6278 33.1391 22.0026 30.6921 17.0974 28.183C16.4989 27.8556 15.6611 28.2724 15.6779 28.8818C15.673 29.4847 15.6535 30.0781 15.6414 30.6619C15.5961 32.1817 15.5588 33.6158 15.707 35.0797C15.8118 36.0705 16.8529 37.0671 17.7778 37.5775C21.695 39.7249 25.6243 41.7297 29.5458 43.7947C30.3221 44.2026 31.111 44.4074 31.9016 44.4124C32.7068 44.4174 33.5173 44.2162 34.3259 43.8023C38.0433 41.8993 41.8849 39.9558 46.063 37.8525C47.6984 37.0313 48.4919 35.7954 48.4915 34.0722C48.4866 30.245 48.5188 26.3387 48.5899 22.128C48.6142 20.5097 47.9245 19.3217 46.5351 18.5927C43.2882 16.8905 40.0303 15.2073 36.7724 13.524L33.2605 11.7059C33.1154 11.632 32.9518 11.5929 32.7842 11.5919L31.5418 11.5841C30.1873 11.9343 28.513 13.0567 27.1565 13.6354C24.0835 15.1584 20.9007 16.7316 17.8087 18.3466C14.8532 19.7657 14.742 23.9699 17.6627 25.4606C21.5907 27.6208 25.6578 29.6994 29.5871 31.7105L30.8097 32.337C31.9789 32.8298 33.2533 32.4824 34.1287 31.9134C36.7337 30.6 37.5901 28.8061 36.8204 26.2625C36.6076 25.5598 35.8466 25.0569 35.4114 24.8193C33.4455 23.7503 31.3377 22.655 29.2445 21.5502C30.2725 21.0457 31.1687 20.6071 32.1043 20.2606ZM35.0025 26.6827C34.9775 26.6223 34.7934 26.418 34.4162 26.2126C32.6642 25.2623 30.8685 24.3213 28.9748 23.3257L26.8817 22.2241C26.2684 21.9252 26.2863 21.078 26.9189 20.8027C28.4332 20.0886 29.9008 19.2853 31.4356 18.7269C32.0752 18.4897 32.8865 18.6344 33.9823 19.1775C35.949 20.1545 37.8241 21.1849 39.7616 22.1744C41.075 22.8459 41.7188 23.8495 41.6752 25.1694C41.6021 26.962 41.6201 28.314 41.6338 29.301C41.6848 32.8428 41.5151 33.102 37.9594 34.8379C36.9644 35.3235 35.7243 35.9283 34.0847 36.8193C32.694 37.5722 31.3314 37.5669 29.9203 36.8123C26.0606 34.7604 21.9143 32.5639 17.5352 30.3119C17.4931 31.8889 17.4329 33.4498 17.5882 34.9328C17.6186 35.2249 18.1492 35.8376 18.7875 36.1874C21.5186 37.6897 24.3411 39.1607 27.0692 40.5804C28.2229 41.1842 29.3729 41.7849 30.5229 42.3886C31.4915 42.8993 32.3695 42.8984 33.372 42.3874C37.0967 40.4844 40.9384 38.5345 45.1238 36.4313C46.1628 35.9078 46.6095 35.2029 46.6079 34.0731C46.603 30.2364 46.6353 26.3238 46.7065 22.1036C46.7285 20.7645 46.0659 20.2622 45.5652 19.9988C42.322 18.2998 39.0678 16.6166 35.8135 14.9334L32.5156 13.2309L31.7834 13.2263C30.5541 13.8406 29.3212 14.4517 28.0884 15.0597C25.0227 16.5797 21.8509 18.1497 18.7772 19.7553C17.0178 20.598 16.9199 23.1837 18.6687 24.0737C22.5714 26.2211 26.624 28.2933 30.5424 30.2948L31.7397 30.9084C31.8887 30.9506 32.3739 30.8743 32.5271 30.8499C32.7062 30.7812 32.9883 30.5893 33.1858 30.4954C35.0371 29.5613 35.5451 28.4918 35.0025 26.6827Z" fill="black"/>
</svg>
